<svg width="950" height="936" xmlns="http://www.w3.org/2000/svg" xmlns:xlink="http://www.w3.org/1999/xlink" xml:space="preserve" overflow="hidden"><defs><clipPath id="clip0"><rect x="1642" y="568" width="950" height="936"/></clipPath><linearGradient x1="2094" y1="1060" x2="1650" y2="1504" gradientUnits="userSpaceOnUse" spreadMethod="reflect" id="fill1"><stop offset="0" stop-color="#1E3E77"/><stop offset="0.5" stop-color="#2F5CAC"/><stop offset="1" stop-color="#3A6FCE"/></linearGradient><linearGradient x1="2592.5" y1="1060.5" x2="2148.5" y2="1503.5" gradientUnits="userSpaceOnUse" spreadMethod="reflect" id="fill2"><stop offset="0" stop-color="#1E3E77"/><stop offset="0.5" stop-color="#2F5CAC"/><stop offset="1" stop-color="#3A6FCE"/></linearGradient><linearGradient x1="2592.5" y1="568.5" x2="2148.5" y2="1011.5" gradientUnits="userSpaceOnUse" spreadMethod="reflect" id="fill3"><stop offset="0" stop-color="#1E3E77"/><stop offset="0.5" stop-color="#2F5CAC"/><stop offset="1" stop-color="#3A6FCE"/></linearGradient><linearGradient x1="2126.04" y1="806.089" x2="1617.56" y2="806.089" gradientUnits="userSpaceOnUse" spreadMethod="reflect" id="fill4"><stop offset="0" stop-color="#2C5981"/><stop offset="0.5" stop-color="#4382BA"/><stop offset="1" stop-color="#529BDE"/></linearGradient></defs><g clip-path="url(#clip0)" transform="translate(-1642 -568)"><path d="M1650 1134C1650 1093.13 1683.13 1060 1724 1060L2020 1060C2060.87 1060 2094 1093.13 2094 1134L2094 1430C2094 1470.87 2060.87 1504 2020 1504L1724 1504C1683.13 1504 1650 1470.87 1650 1430Z" fill="url(#fill1)" fill-rule="evenodd"/><path d="M2149 1133.83C2149 1093.06 2182.06 1060 2222.84 1060L2518.17 1060C2558.94 1060 2592 1093.06 2592 1133.83L2592 1430.17C2592 1470.94 2558.94 1504 2518.17 1504L2222.84 1504C2182.06 1504 2149 1470.94 2149 1430.17Z" fill="url(#fill2)" fill-rule="evenodd"/><path d="M2149 641.835C2149 601.057 2182.06 568 2222.84 568L2518.17 568C2558.94 568 2592 601.057 2592 641.835L2592 938.165C2592 978.943 2558.94 1012 2518.17 1012L2222.84 1012C2182.06 1012 2149 978.943 2149 938.165Z" fill="url(#fill3)" fill-rule="evenodd"/><path d="M1829.43 594.223C1852.83 570.821 1890.77 570.821 1914.18 594.223L2083.67 763.714C2107.07 787.117 2107.07 825.06 2083.67 848.463L1914.18 1017.95C1890.77 1041.36 1852.83 1041.36 1829.43 1017.95L1659.94 848.463C1636.54 825.06 1636.54 787.117 1659.94 763.714Z" fill="url(#fill4)" fill-rule="evenodd"/></g></svg>