<svg width="762" height="1271" xmlns="http://www.w3.org/2000/svg" xmlns:xlink="http://www.w3.org/1999/xlink" xml:space="preserve" overflow="hidden"><defs><linearGradient x1="3837" y1="748" x2="3837" y2="1506" gradientUnits="userSpaceOnUse" spreadMethod="reflect" id="fill0"><stop offset="0" stop-color="#4D6183"/><stop offset="0.5" stop-color="#728DBD"/><stop offset="1" stop-color="#89A9E1"/></linearGradient><linearGradient x1="373" y1="0" x2="373" y2="758" gradientUnits="userSpaceOnUse" spreadMethod="reflect" id="fill1"><stop offset="0" stop-color="#4D6183"/><stop offset="0.5" stop-color="#728DBD"/><stop offset="1" stop-color="#89A9E1"/></linearGradient><linearGradient x1="3837" y1="748" x2="3837" y2="1506" gradientUnits="userSpaceOnUse" spreadMethod="reflect" id="fill2"><stop offset="0" stop-color="#4D6183"/><stop offset="0.5" stop-color="#728DBD"/><stop offset="1" stop-color="#89A9E1"/></linearGradient><linearGradient x1="3837" y1="1387" x2="3837" y2="1602" gradientUnits="userSpaceOnUse" spreadMethod="reflect" id="fill3"><stop offset="0" stop-color="#7D838F"/><stop offset="0.5" stop-color="#B5BECE"/><stop offset="1" stop-color="#D8E2F5"/></linearGradient><linearGradient x1="3837" y1="645" x2="3837" y2="860" gradientUnits="userSpaceOnUse" spreadMethod="reflect" id="fill4"><stop offset="0" stop-color="#657289"/><stop offset="0.5" stop-color="#94A6C6"/><stop offset="1" stop-color="#B0C6EB"/></linearGradient><linearGradient x1="3898" y1="1029" x2="3758" y2="1029" gradientUnits="userSpaceOnUse" spreadMethod="reflect" id="fill5"><stop offset="0" stop-color="#006D2A"/><stop offset="0.5" stop-color="#009E41"/><stop offset="1" stop-color="#00BD4F"/></linearGradient><linearGradient x1="3828.5" y1="487" x2="3828.5" y2="409" gradientUnits="userSpaceOnUse" spreadMethod="reflect" id="fill6"><stop offset="0" stop-color="#006D2A"/><stop offset="0.5" stop-color="#009E41"/><stop offset="1" stop-color="#00BD4F"/></linearGradient><linearGradient x1="3736.52" y1="1010.82" x2="3597.96" y2="1028" gradientUnits="userSpaceOnUse" spreadMethod="reflect" id="fill7"><stop offset="0" stop-color="#770000"/><stop offset="0.5" stop-color="#AD0000"/><stop offset="1" stop-color="#CE0000"/></linearGradient><linearGradient x1="3598.39" y1="458.892" x2="3588.41" y2="378.451" gradientUnits="userSpaceOnUse" spreadMethod="reflect" id="fill8"><stop offset="0" stop-color="#770000"/><stop offset="0.5" stop-color="#AD0000"/><stop offset="1" stop-color="#CE0000"/></linearGradient><linearGradient x1="139.63" y1="505.914" x2="0" y2="505.914" gradientUnits="userSpaceOnUse" spreadMethod="reflect" id="fill9"><stop offset="0" stop-color="#A07400"/><stop offset="0.5" stop-color="#E6A900"/><stop offset="1" stop-color="#FFCA00"/></linearGradient><linearGradient x1="38.3466" y1="82.5873" x2="38.3466" y2="0" gradientUnits="userSpaceOnUse" spreadMethod="reflect" id="fill10"><stop offset="0" stop-color="#A07400"/><stop offset="0.5" stop-color="#E6A900"/><stop offset="1" stop-color="#FFCA00"/></linearGradient></defs><g transform="translate(-3456 -338)"><path d="M3464 748 3837 748 3837 1506 3564.21 1506 3464 748Z" stroke="#000000" stroke-width="13.75" stroke-miterlimit="8" fill="url(#fill0)" fill-rule="evenodd"/><path d="M0 0 373 0 373 758 100.209 758 0 0Z" stroke="#000000" stroke-width="13.75" stroke-miterlimit="8" fill="url(#fill1)" fill-rule="evenodd" transform="matrix(-1 0 0 1 4210 748)"/><rect x="3735" y="829" width="242" height="620" fill="url(#fill2)"/><path d="M3563 1494.5C3563 1435.13 3685.67 1387 3837 1387 3988.33 1387 4111 1435.13 4111 1494.5 4111 1553.87 3988.33 1602 3837 1602 3685.67 1602 3563 1553.87 3563 1494.5Z" stroke="#000000" stroke-width="13.75" stroke-miterlimit="8" fill="url(#fill3)" fill-rule="evenodd"/><path d="M3464 752.5C3464 693.129 3631 645 3837 645 4043 645 4210 693.129 4210 752.5 4210 811.871 4043 860 3837 860 3631 860 3464 811.871 3464 752.5Z" stroke="#000000" stroke-width="13.75" stroke-miterlimit="8" fill="url(#fill4)" fill-rule="evenodd"/><rect x="3758" y="552" width="140" height="954" stroke="#000000" stroke-width="13.75" stroke-miterlimit="8" fill="url(#fill5)"/><path d="M3758 551 3828 409 3898 551Z" stroke="#000000" stroke-width="13.75" stroke-miterlimit="8" fill="#F4B183" fill-rule="evenodd"/><path d="M3790 487 3828.5 409 3867 487Z" stroke="#000000" stroke-width="13.75" stroke-miterlimit="8" fill="url(#fill6)" fill-rule="evenodd"/><path d="M3536.85 535.237 3675.42 518.055 3797.63 1503.58 3659.06 1520.77Z" stroke="#000000" stroke-width="13.75" stroke-miterlimit="8" fill="url(#fill7)" fill-rule="evenodd"/><path d="M3536.73 534.242 3587.86 379.199 3675.3 517.06Z" stroke="#000000" stroke-width="13.75" stroke-miterlimit="8" fill="#F4B183" fill-rule="evenodd"/><path d="M3560.33 463.611 3588.41 378.451 3636.44 454.173Z" stroke="#000000" stroke-width="13.75" stroke-miterlimit="8" fill="url(#fill8)" fill-rule="evenodd"/><rect x="0" y="0" width="139.63" height="1011.83" stroke="#000000" stroke-width="13.75" stroke-miterlimit="8" fill="url(#fill9)" transform="matrix(-0.9924 -0.123056 -0.123056 0.9924 4115.4 514.533)"/><path d="M0 150.36 69.8148 0 139.63 150.36Z" stroke="#000000" stroke-width="13.75" stroke-miterlimit="8" fill="#F4B183" fill-rule="evenodd" transform="matrix(-0.9924 -0.123056 -0.123056 0.9924 4134.03 364.302)"/><path d="M0 82.5873 38.3466 0 76.6932 82.5873Z" stroke="#000000" stroke-width="13.75" stroke-miterlimit="8" fill="url(#fill10)" fill-rule="evenodd" transform="matrix(-0.9924 -0.123056 -0.123056 0.9924 4102.24 359.67)"/><path d="M4210 752C4210 811.647 4043 860 3837 860 3631 860 3464 811.647 3464 752" stroke="#000000" stroke-width="13.75" stroke-miterlimit="8" fill="none" fill-rule="evenodd"/></g></svg>